<?xml version="1.0" standalone="no"?>
<!DOCTYPE svg PUBLIC "-//W3C//DTD SVG 20010904//EN"
 "http://www.w3.org/TR/2001/REC-SVG-20010904/DTD/svg10.dtd">
<svg version="1.0" xmlns="http://www.w3.org/2000/svg"
 width="2000.000000pt" height="2000.000000pt" viewBox="0 0 2000.000000 2000.000000"
 preserveAspectRatio="xMidYMid meet">
<metadata>
Created by potrace 1.11, written by Peter Selinger 2001-2013
</metadata>
<g transform="translate(0.000000,2000.000000) scale(0.100000,-0.100000)"
fill="#000000" stroke="none">
<path d="M4152 19833 c-254 -388 -462 -819 -577 -1198 -133 -439 -198 -845
-211 -1320 -26 -932 195 -1793 658 -2570 242 -405 487 -715 852 -1081 277
-277 547 -510 828 -719 20 -15 385 -726 1353 -2634 l1325 -2613 0 -1579 0
-1579 -195 0 -195 0 0 -1290 0 -1290 3105 0 3105 0 0 1290 0 1290 -230 0 -229
0 -4 -82 c-1 -46 -4 659 -5 1565 -2 1607 -2 1649 17 1665 10 10 578 1219 1262
2689 l1243 2672 90 73 c1041 842 1687 1781 1966 2862 225 869 194 1851 -84
2691 -143 430 -352 853 -600 1215 l-72 105 -6646 3 -6646 2 -110 -167z m9278
-13783 l0 -1440 -2335 0 -2335 0 0 1375 c0 756 4 1375 9 1375 4 0 55 -22 112
-49 228 -107 598 -235 855 -296 374 -89 710 -131 1124 -142 225 -5 545 7 628
23 23 5 32 3 32 -7 1 -33 -236 -1227 -242 -1222 -5 2 -8 -8 -7 -24 0 -23 2
-25 8 -9 5 14 10 16 15 7 4 -7 2 -27 -6 -44 -7 -19 -13 -67 -13 -117 1 -69 5
-94 24 -130 31 -61 86 -116 146 -148 43 -23 62 -27 135 -27 97 0 146 19 213
84 67 63 87 115 87 225 0 52 -4 106 -10 120 -5 15 -52 302 -105 639 -52 336
-98 624 -101 639 -6 32 -21 27 176 58 490 76 1021 250 1445 474 77 41 141 75
143 75 1 1 2 -647 2 -1439z"/>
<path d="M12523 6190 c-209 -38 -390 -208 -438 -411 -63 -268 86 -535 355
-638 57 -22 81 -25 195 -25 114 0 138 3 195 25 373 142 488 581 229 872 -101
114 -232 174 -391 182 -51 2 -116 0 -145 -5z"/>
</g>
</svg>
