<?xml version="1.0" encoding="UTF-8"?>

<svg version="1.2" baseProfile="tiny" width="250mm" height="250mm" viewBox="0 0 25000 25000" preserveAspectRatio="xMidYMid" fill-rule="evenodd" clip-path="url(#presentation_clip_path)" stroke-width="28.222" stroke-linejoin="round" xmlns="http://www.w3.org/2000/svg" xmlns:ooo="http://xml.openoffice.org/svg/export" xmlns:xlink="http://www.w3.org/1999/xlink" xml:space="preserve">
 <defs class="ClipPathGroup">
  <clipPath id="presentation_clip_path" clipPathUnits="userSpaceOnUse">
   <rect x="0" y="0" width="25000" height="25000"/>
  </clipPath>
 </defs>
 <defs class="TextShapeIndex">
  <g ooo:slide="id1" ooo:id-list="id3 id4 id5 id6 id7"/>
 </defs>
 <defs class="EmbeddedBulletChars">
  <g id="bullet-char-template(57356)" transform="scale(0.00048828125,-0.00048828125)">
   <path d="M 580,1141 L 1163,571 580,0 -4,571 580,1141 Z"/>
  </g>
  <g id="bullet-char-template(57354)" transform="scale(0.00048828125,-0.00048828125)">
   <path d="M 8,1128 L 1137,1128 1137,0 8,0 8,1128 Z"/>
  </g>
  <g id="bullet-char-template(10146)" transform="scale(0.00048828125,-0.00048828125)">
   <path d="M 174,0 L 602,739 174,1481 1456,739 174,0 Z M 1358,739 L 309,1346 659,739 1358,739 Z"/>
  </g>
  <g id="bullet-char-template(10132)" transform="scale(0.00048828125,-0.00048828125)">
   <path d="M 2015,739 L 1276,0 717,0 1260,543 174,543 174,936 1260,936 717,1481 1274,1481 2015,739 Z"/>
  </g>
  <g id="bullet-char-template(10007)" transform="scale(0.00048828125,-0.00048828125)">
   <path d="M 0,-2 C -7,14 -16,27 -25,37 L 356,567 C 262,823 215,952 215,954 215,979 228,992 255,992 264,992 276,990 289,987 310,991 331,999 354,1012 L 381,999 492,748 772,1049 836,1024 860,1049 C 881,1039 901,1025 922,1006 886,937 835,863 770,784 769,783 710,716 594,584 L 774,223 C 774,196 753,168 711,139 L 727,119 C 717,90 699,76 672,76 641,76 570,178 457,381 L 164,-76 C 142,-110 111,-127 72,-127 30,-127 9,-110 8,-76 1,-67 -2,-52 -2,-32 -2,-23 -1,-13 0,-2 Z"/>
  </g>
  <g id="bullet-char-template(10004)" transform="scale(0.00048828125,-0.00048828125)">
   <path d="M 285,-33 C 182,-33 111,30 74,156 52,228 41,333 41,471 41,549 55,616 82,672 116,743 169,778 240,778 293,778 328,747 346,684 L 369,508 C 377,444 397,411 428,410 L 1163,1116 C 1174,1127 1196,1133 1229,1133 1271,1133 1292,1118 1292,1087 L 1292,965 C 1292,929 1282,901 1262,881 L 442,47 C 390,-6 338,-33 285,-33 Z"/>
  </g>
  <g id="bullet-char-template(9679)" transform="scale(0.00048828125,-0.00048828125)">
   <path d="M 813,0 C 632,0 489,54 383,161 276,268 223,411 223,592 223,773 276,916 383,1023 489,1130 632,1184 813,1184 992,1184 1136,1130 1245,1023 1353,916 1407,772 1407,592 1407,412 1353,268 1245,161 1136,54 992,0 813,0 Z"/>
  </g>
  <g id="bullet-char-template(8226)" transform="scale(0.00048828125,-0.00048828125)">
   <path d="M 346,457 C 273,457 209,483 155,535 101,586 74,649 74,723 74,796 101,859 155,911 209,963 273,989 346,989 419,989 480,963 531,910 582,859 608,796 608,723 608,648 583,586 532,535 482,483 420,457 346,457 Z"/>
  </g>
  <g id="bullet-char-template(8211)" transform="scale(0.00048828125,-0.00048828125)">
   <path d="M -4,459 L 1135,459 1135,606 -4,606 -4,459 Z"/>
  </g>
 </defs>
 <defs class="TextEmbeddedBitmaps"/>
 <g>
  <g id="id2" class="Master_Slide">
   <g id="bg-id2" class="Background"/>
   <g id="bo-id2" class="BackgroundObjects"/>
  </g>
 </g>
 <g class="SlideGroup">
  <g>
   <g id="id1" class="Slide" clip-path="url(#presentation_clip_path)">
    <g class="Page">
     <g class="com.sun.star.drawing.ClosedBezierShape">
      <g id="id3">
       <path fill="rgb(255,255,255)" stroke="none" d="M 3899,1837 C 2686,1837 1700,2826 1700,4038 L 1700,20899 C 1700,22112 2686,23100 3899,23100 L 20760,23100 C 21973,23100 22959,22112 22959,20899 L 22959,4038 C 22959,2826 21973,1837 20760,1837 L 3899,1837 Z"/>
      </g>
     </g>
     <g class="com.sun.star.drawing.OpenBezierShape">
      <g id="id4"/>
     </g>
     <g class="com.sun.star.drawing.ClosedBezierShape">
      <g id="id5">
       <path fill="rgb(35,31,32)" stroke="none" d="M 6327,16338 C 11522,18524 15467,19798 21025,21549 21137,21566 21242,21488 21260,21369 21278,21257 21200,21147 21085,21125 12333,18369 5460,15318 3893,14610 3731,14542 3543,14618 3480,14775 3415,14937 3485,15112 3644,15175 4032,15349 4417,15520 4789,15681 L 3556,16623 C 3415,16829 3476,17091 3682,17233 3837,17336 4054,17325 4204,17228 L 6327,16338 Z"/>
      </g>
     </g>
     <g class="com.sun.star.drawing.ClosedBezierShape">
      <g id="id6">
       <path fill="rgb(35,31,32)" stroke="none" d="M 13166,11238 L 16318,9689 19243,12382 C 19373,12510 19553,12588 19746,12588 20140,12584 20456,12263 20452,11875 20452,11664 20355,11476 20210,11344 L 16029,7504 C 15890,7369 15726,7259 15547,7181 L 12294,6019 10814,3878 C 10700,3722 10525,3616 10319,3589 9933,3547 9579,3827 9536,4217 9518,4378 9556,4535 9637,4668 L 11146,6856 C 11218,6943 11305,7019 11410,7066 L 13161,7755 10285,9225 C 9881,9452 9597,9855 9518,10324 L 9532,12956 6871,14155 C 6572,14301 6359,14597 6346,14953 6324,15460 6718,15886 7225,15906 7384,15915 7536,15881 7669,15814 L 10924,14343 C 11155,14220 11330,13998 11388,13727 L 11383,12088 13643,14112 13226,17558 C 13226,17578 13222,17601 13222,17623 13199,18132 13594,18560 14103,18583 14580,18601 14986,18253 15053,17785 L 15538,13852 C 15538,13837 15542,13819 15542,13801 15551,13525 15441,13276 15257,13099 L 13166,11238 Z"/>
      </g>
     </g>
     <g class="com.sun.star.drawing.CustomShape">
      <g id="id7">
       <path fill="rgb(0,0,0)" stroke="none" d="M 17550,5100 C 18315,5100 18900,5685 18900,6450 18900,7215 18315,7800 17550,7800 16785,7800 16200,7215 16200,6450 16200,5685 16785,5100 17550,5100 Z M 16200,5100 L 16200,5100 Z M 18901,7801 L 18901,7801 Z"/>
       <path fill="none" stroke="rgb(52,101,164)" d="M 17550,5100 C 18315,5100 18900,5685 18900,6450 18900,7215 18315,7800 17550,7800 16785,7800 16200,7215 16200,6450 16200,5685 16785,5100 17550,5100 Z"/>
       <path fill="none" stroke="rgb(52,101,164)" d="M 16200,5100 L 16200,5100 Z"/>
       <path fill="none" stroke="rgb(52,101,164)" d="M 18901,7801 L 18901,7801 Z"/>
      </g>
     </g>
    </g>
   </g>
  </g>
 </g>
</svg>