<?xml version="1.0" encoding="UTF-8"?>

<svg version="1.2" baseProfile="tiny" width="115.63mm" height="115.63mm" viewBox="0 0 11563 11563" preserveAspectRatio="xMidYMid" fill-rule="evenodd" clip-path="url(#presentation_clip_path)" stroke-width="28.222" stroke-linejoin="round" xmlns="http://www.w3.org/2000/svg" xmlns:ooo="http://xml.openoffice.org/svg/export" xmlns:xlink="http://www.w3.org/1999/xlink" xml:space="preserve">
 <defs class="ClipPathGroup">
  <clipPath id="presentation_clip_path" clipPathUnits="userSpaceOnUse">
   <rect x="0" y="0" width="11563" height="11563"/>
  </clipPath>
 </defs>
 <defs class="TextShapeIndex">
  <g ooo:slide="id1" ooo:id-list="id3 id4 id5 id6 id7 id8 id9 id10"/>
 </defs>
 <defs class="EmbeddedBulletChars">
  <g id="bullet-char-template(57356)" transform="scale(0.00048828125,-0.00048828125)">
   <path d="M 580,1141 L 1163,571 580,0 -4,571 580,1141 Z"/>
  </g>
  <g id="bullet-char-template(57354)" transform="scale(0.00048828125,-0.00048828125)">
   <path d="M 8,1128 L 1137,1128 1137,0 8,0 8,1128 Z"/>
  </g>
  <g id="bullet-char-template(10146)" transform="scale(0.00048828125,-0.00048828125)">
   <path d="M 174,0 L 602,739 174,1481 1456,739 174,0 Z M 1358,739 L 309,1346 659,739 1358,739 Z"/>
  </g>
  <g id="bullet-char-template(10132)" transform="scale(0.00048828125,-0.00048828125)">
   <path d="M 2015,739 L 1276,0 717,0 1260,543 174,543 174,936 1260,936 717,1481 1274,1481 2015,739 Z"/>
  </g>
  <g id="bullet-char-template(10007)" transform="scale(0.00048828125,-0.00048828125)">
   <path d="M 0,-2 C -7,14 -16,27 -25,37 L 356,567 C 262,823 215,952 215,954 215,979 228,992 255,992 264,992 276,990 289,987 310,991 331,999 354,1012 L 381,999 492,748 772,1049 836,1024 860,1049 C 881,1039 901,1025 922,1006 886,937 835,863 770,784 769,783 710,716 594,584 L 774,223 C 774,196 753,168 711,139 L 727,119 C 717,90 699,76 672,76 641,76 570,178 457,381 L 164,-76 C 142,-110 111,-127 72,-127 30,-127 9,-110 8,-76 1,-67 -2,-52 -2,-32 -2,-23 -1,-13 0,-2 Z"/>
  </g>
  <g id="bullet-char-template(10004)" transform="scale(0.00048828125,-0.00048828125)">
   <path d="M 285,-33 C 182,-33 111,30 74,156 52,228 41,333 41,471 41,549 55,616 82,672 116,743 169,778 240,778 293,778 328,747 346,684 L 369,508 C 377,444 397,411 428,410 L 1163,1116 C 1174,1127 1196,1133 1229,1133 1271,1133 1292,1118 1292,1087 L 1292,965 C 1292,929 1282,901 1262,881 L 442,47 C 390,-6 338,-33 285,-33 Z"/>
  </g>
  <g id="bullet-char-template(9679)" transform="scale(0.00048828125,-0.00048828125)">
   <path d="M 813,0 C 632,0 489,54 383,161 276,268 223,411 223,592 223,773 276,916 383,1023 489,1130 632,1184 813,1184 992,1184 1136,1130 1245,1023 1353,916 1407,772 1407,592 1407,412 1353,268 1245,161 1136,54 992,0 813,0 Z"/>
  </g>
  <g id="bullet-char-template(8226)" transform="scale(0.00048828125,-0.00048828125)">
   <path d="M 346,457 C 273,457 209,483 155,535 101,586 74,649 74,723 74,796 101,859 155,911 209,963 273,989 346,989 419,989 480,963 531,910 582,859 608,796 608,723 608,648 583,586 532,535 482,483 420,457 346,457 Z"/>
  </g>
  <g id="bullet-char-template(8211)" transform="scale(0.00048828125,-0.00048828125)">
   <path d="M -4,459 L 1135,459 1135,606 -4,606 -4,459 Z"/>
  </g>
 </defs>
 <defs class="TextEmbeddedBitmaps"/>
 <g>
  <g id="id2" class="Master_Slide">
   <g id="bg-id2" class="Background"/>
   <g id="bo-id2" class="BackgroundObjects"/>
  </g>
 </g>
 <g class="SlideGroup">
  <g>
   <g id="id1" class="Slide" clip-path="url(#presentation_clip_path)">
    <g class="Page">
     <g class="com.sun.star.drawing.ClosedBezierShape">
      <g id="id3">
       <path fill="rgb(0,0,0)" fill-opacity="0.961" stroke="rgb(255,255,255)" stroke-opacity="0.961" d="M 7493,4893 C 7493,5037 7460,5160 7387,5284 7313,5409 7222,5499 7095,5571 6968,5643 6843,5676 6697,5676 6550,5676 6425,5643 6298,5571 6171,5499 6080,5409 6007,5284 5933,5160 5900,5037 5900,4893 5900,4749 5933,4626 6007,4501 6080,4377 6171,4287 6298,4215 6425,4143 6550,4110 6697,4110 6843,4110 6968,4143 7095,4215 7222,4287 7313,4377 7387,4501 7460,4626 7493,4749 7493,4893 Z"/>
       <path fill="none" stroke="rgb(0,0,0)" stroke-width="188" stroke-linejoin="miter" d="M 7493,4893 C 7493,5037 7460,5160 7387,5284 7313,5409 7222,5499 7095,5571 6968,5643 6843,5676 6697,5676 6550,5676 6425,5643 6298,5571 6171,5499 6080,5409 6007,5284 5933,5160 5900,5037 5900,4893 5900,4749 5933,4626 6007,4501 6080,4377 6171,4287 6298,4215 6425,4143 6550,4110 6697,4110 6843,4110 6968,4143 7095,4215 7222,4287 7313,4377 7387,4501 7460,4626 7493,4749 7493,4893 Z"/>
      </g>
     </g>
     <g class="com.sun.star.drawing.ClosedBezierShape">
      <g id="id4">
       <path fill="rgb(0,0,0)" fill-opacity="0.961" stroke="rgb(255,255,255)" stroke-opacity="0.961" d="M 5262,5705 C 5610,5863 5911,5982 6400,6047 6890,6113 7178,6014 8053,6378 8928,6743 9649,7978 10346,9160 L 9934,9374 9195,9598 8488,9195 7857,9111 7492,9387 C 7492,9387 7648,9205 7679,8631 7710,8051 6972,7279 6972,7279 6972,7279 5566,8244 5125,8323 4684,8403 2758,8192 2328,8137 2328,8137 2161,7916 2224,7824 2288,7732 2248,7697 2546,7699 2546,7699 4712,8073 5229,7853 5776,7621 6410,6971 6331,6736 6253,6501 5334,6244 5059,6078 4793,5906 4200,5600 4200,5600 4200,5600 3895,5398 4106,5169 4294,4966 4527,5182 4527,5182 4527,5182 4915,5548 5262,5705 Z"/>
       <path fill="none" stroke="rgb(0,0,0)" stroke-width="212" stroke-linejoin="miter" d="M 5262,5705 C 5610,5863 5911,5982 6400,6047 6890,6113 7178,6014 8053,6378 8928,6743 9649,7978 10346,9160 L 9934,9374 9195,9598 8488,9195 7857,9111 7492,9387 C 7492,9387 7648,9205 7679,8631 7710,8051 6972,7279 6972,7279 6972,7279 5566,8244 5125,8323 4684,8403 2758,8192 2328,8137 2328,8137 2161,7916 2224,7824 2288,7732 2248,7697 2546,7699 2546,7699 4712,8073 5229,7853 5776,7621 6410,6971 6331,6736 6253,6501 5334,6244 5059,6078 4793,5906 4200,5600 4200,5600 4200,5600 3895,5398 4106,5169 4294,4966 4527,5182 4527,5182 4527,5182 4915,5548 5262,5705 Z"/>
      </g>
     </g>
     <g class="com.sun.star.drawing.ClosedBezierShape">
      <g id="id5">
       <path fill="rgb(0,0,0)" fill-opacity="0.961" stroke="rgb(255,255,255)" stroke-opacity="0.961" d="M 6170,2850 C 6098,2212 6296,1642 6580,1322 6864,1002 7407,645 7763,959 8110,1265 7822,1754 7590,2095 7358,2435 6679,2775 6214,2874 L 1592,9008 1572,9001 6170,2850 Z"/>
       <path fill="none" stroke="rgb(0,0,0)" stroke-width="212" stroke-linejoin="miter" d="M 6170,2850 C 6098,2212 6296,1642 6580,1322 6864,1002 7407,645 7763,959 8110,1265 7822,1754 7590,2095 7358,2435 6679,2775 6214,2874 L 1592,9008 1572,9001 6170,2850 Z"/>
      </g>
     </g>
     <g class="com.sun.star.drawing.PolyLineShape">
      <g id="id6"/>
     </g>
     <g class="com.sun.star.drawing.OpenBezierShape">
      <g id="id7">
       <path fill="none" stroke="rgb(0,0,0)" stroke-width="212" stroke-linejoin="miter" d="M 11317,9610 C 11317,9610 10688,9168 10377,9171 10027,9175 9679,9679 9328,9688 8904,9698 8501,9137 8076,9140 7695,9142 7251,9645 6870,9641 6517,9637 6158,9146 5805,9140 5448,9133 5067,9612 4709,9610 4350,9607 3973,9119 3613,9124 3275,9129 2934,9616 2596,9610 2220,9603 1860,9041 1484,9030 1108,9019 341,9547 341,9547 L 435,10910 1171,11301 9610,11285 11004,11113 11301,10220 11239,9578"/>
      </g>
     </g>
     <g class="com.sun.star.drawing.CustomShape">
      <g id="id8">
       <path fill="rgb(255,255,255)" stroke="none" d="M 5781,11562 L -1,11562 -1,9899 11562,9899 11562,11562 5781,11562 Z"/>
      </g>
     </g>
     <g class="com.sun.star.drawing.CustomShape">
      <g id="id9">
       <path fill="rgb(255,255,255)" stroke="none" d="M 300,11300 L 0,11300 0,9600 600,9600 600,11300 300,11300 Z"/>
      </g>
     </g>
     <g class="com.sun.star.drawing.CustomShape">
      <g id="id10">
       <path fill="rgb(255,255,255)" stroke="none" d="M 11263,11300 L 10963,11300 10963,9600 11563,9600 11563,11300 11263,11300 Z"/>
      </g>
     </g>
    </g>
   </g>
  </g>
 </g>
</svg>