<?xml version="1.0" encoding="UTF-8" standalone="no"?>
<!-- Created with Inkscape (http://www.inkscape.org/) -->
<svg xmlns:dc="http://purl.org/dc/elements/1.1/" xmlns:cc="http://creativecommons.org/ns#" xmlns:rdf="http://www.w3.org/1999/02/22-rdf-syntax-ns#" xmlns:svg="http://www.w3.org/2000/svg" xmlns="http://www.w3.org/2000/svg" xmlns:sodipodi="http://sodipodi.sourceforge.net/DTD/sodipodi-0.dtd" xmlns:inkscape="http://www.inkscape.org/namespaces/inkscape" id="svg2" sodipodi:version="0.32" inkscape:version="0.46+devel r21031" width="327.76294" height="327.76294" version="1.0" sodipodi:docname="kayak1.svg" inkscape:output_extension="org.inkscape.output.svg.inkscape">
  <metadata id="metadata7">
    <rdf:RDF>
      <cc:Work rdf:about="">
        <dc:format>image/svg+xml</dc:format>
        <dc:type rdf:resource="http://purl.org/dc/dcmitype/StillImage"/>
      </cc:Work>
    </rdf:RDF>
  </metadata>
  <defs id="defs5">
    <inkscape:perspective sodipodi:type="inkscape:persp3d" inkscape:vp_x="0 : 526.18109 : 1" inkscape:vp_y="0 : 1000 : 0" inkscape:vp_z="744.09448 : 526.18109 : 1" inkscape:persp3d-origin="372.04724 : 350.78739 : 1" id="perspective9"/>
  </defs>
  <sodipodi:namedview inkscape:window-height="975" inkscape:window-width="1280" inkscape:pageshadow="2" inkscape:pageopacity="0.0" guidetolerance="10.0" gridtolerance="10.0" objecttolerance="10.0" borderopacity="1.0" bordercolor="#666666" pagecolor="#ffffff" id="base" showgrid="false" inkscape:zoom="1.1949917" inkscape:cx="156.0602" inkscape:cy="201.75143" inkscape:window-x="1277" inkscape:window-y="-4" inkscape:current-layer="svg2" inkscape:showpageshadow="false"/>
  <rect style="fill:#ffffff;stroke:#000000;stroke-width:17.28720093000000091;stroke-linejoin:round;stroke-miterlimit:4;stroke-opacity:1;stroke-dasharray:none;fill-opacity:1" id="rect3941" width="310.47574" height="310.47574" x="8.6436005" y="8.6436005" ry="25.090233"/>
  <path sodipodi:type="arc" style="fill:#000000;fill-opacity:0.96078431;stroke:#000000;stroke-opacity:1" id="path3174" sodipodi:cx="28.673601" sodipodi:cy="21.391417" sodipodi:rx="4.2262678" sodipodi:ry="4.1612482" d="m 32.899869,21.391417 a 4.2262678,4.1612482 0 1 1 -8.452536,0 4.2262678,4.1612482 0 1 1 8.452536,0 z" transform="matrix(5.3402076,0,0,5.3298978,36.683679,24.666694)"/>
  <path style="fill:#000000;fill-opacity:0.96078431;fill-rule:evenodd;stroke:#000000;stroke-width:6px;stroke-linecap:butt;stroke-linejoin:miter;stroke-opacity:1" d="m 149.17027,161.72641 c 9.83724,4.46249 18.37154,7.83997 32.24844,9.69513 13.87689,1.85517 22.04727,-0.94717 46.84851,9.38802 24.80123,10.3352 45.24119,45.31792 64.97796,78.83623 l -11.67596,6.0449 -20.92697,6.3509 -20.03938,-11.40086 -17.88907,-2.38718 -10.34457,7.82007 c 0,0 4.40292,-5.16852 5.28239,-21.43872 0.88758,-16.42037 -20.01387,-38.30287 -20.01387,-38.30287 0,0 -39.85671,27.33562 -52.36482,29.59523 -12.50811,2.2596 -67.098711,-3.71032 -79.280025,-5.27186 0,0 -4.724928,-6.28108 -2.93115,-8.87971 1.793778,-2.59863 0.674424,-3.58982 9.10881,-3.55035 0,0 61.398855,10.59738 76.044055,4.38426 15.51526,-6.58223 33.46763,-25.01063 31.24866,-31.66754 -2.21896,-6.65691 -28.26291,-13.94263 -36.06618,-18.63934 -7.54449,-4.88174 -24.34828,-13.55058 -24.34828,-13.55058 0,0 -8.63777,-5.74244 -2.66276,-12.21536 5.32553,-5.76933 11.93259,0.37573 11.93259,0.37573 0,0 11.01438,10.35142 20.85162,14.8139 z" id="path3176" sodipodi:nodetypes="cszcccccccczczcccccccz"/>
  <path style="fill:#000000;fill-opacity:0.96078431;fill-rule:evenodd;stroke:#000000;stroke-width:6px;stroke-linecap:butt;stroke-linejoin:miter;stroke-opacity:1" d="m 174.86431,80.739273 c -2.04048,-18.075876 3.56086,-34.236523 11.61054,-43.302991 8.04968,-9.066468 23.4608,-19.187628 33.53568,-10.289698 9.82316,8.67562 1.68552,22.531328 -4.8961,32.193767 -6.58164,9.662436 -25.83219,19.285086 -38.99733,22.08618 L 45.126912,255.27591 44.547006,255.08612 174.86431,80.739273 z" id="path3178" sodipodi:nodetypes="czzzcccc"/>
  <path style="fill:none;stroke:none" d="m 309.99146,275.38275 -26.91808,-3.90117 -18.3355,4.29128 -24.96749,-8.97269 -24.96748,7.80234 -28.08843,-5.85175 -25.74773,10.92327 -27.69831,-11.31339 -19.11573,9.36281 -28.868659,-8.97269 -22.626792,8.58257 -25.747724,-10.53316 -20.286091,8.19246 m -0.39011,-7.02211 23.40702,-10.14304 23.016905,8.97269 23.79714,-7.80234 24.577371,8.19246 24.18726,-7.41222 24.57737,7.41222 27.69831,-8.97269 25.74773,8.97269 27.30818,-7.80234 21.84656,8.19246 19.89597,-6.63199 28.08842,8.58257 -0.39011,5.85176" id="path3180" sodipodi:nodetypes="ccccccccccccccccccccccccccc"/>
  <path style="fill:none;stroke:#000000;stroke-width:6px;stroke-linecap:butt;stroke-linejoin:miter;stroke-opacity:1" d="m 320.76894,272.39506 c 0,0 -17.81281,-12.51893 -26.62764,-12.42623 -9.943,0.10456 -19.79355,14.40452 -29.73419,14.6452 -12.04162,0.29154 -23.45853,-15.59441 -35.50351,-15.53279 -10.78734,0.0552 -23.38521,14.31125 -34.17213,14.20141 -10.00524,-0.10188 -20.17376,-14.02656 -30.17799,-14.20141 -10.13795,-0.17718 -20.92625,13.37469 -31.06557,13.31382 -10.1925,-0.0612 -20.8739,-13.90091 -31.06558,-13.75762 -9.586853,0.13479 -19.260311,13.92726 -28.846607,13.75762 -10.657704,-0.1886 -20.854151,-16.12279 -31.509368,-16.42038 -10.661861,-0.29778 -32.396961,14.6452 -32.396961,14.6452 l 2.66277,38.61007 20.85831,11.09485 239.204926,-0.44379 39.49766,-4.88173 8.43209,-25.29626 -1.77518,-18.19555" id="path3184" sodipodi:nodetypes="csssssssssscccccc"/>
</svg>