<?xml version="1.0" encoding="UTF-8" standalone="no"?>
<!-- Created with Inkscape (http://www.inkscape.org/) -->
<svg xmlns:dc="http://purl.org/dc/elements/1.1/" xmlns:cc="http://creativecommons.org/ns#" xmlns:rdf="http://www.w3.org/1999/02/22-rdf-syntax-ns#" xmlns:svg="http://www.w3.org/2000/svg" xmlns="http://www.w3.org/2000/svg" xmlns:sodipodi="http://sodipodi.sourceforge.net/DTD/sodipodi-0.dtd" xmlns:inkscape="http://www.inkscape.org/namespaces/inkscape" width="627.48834" height="414.7547" id="svg2" version="1.1" inkscape:version="0.47 r22583" sodipodi:docname="Novo documento 1">
  <defs id="defs4">
    <inkscape:perspective sodipodi:type="inkscape:persp3d" inkscape:vp_x="0 : 526.18109 : 1" inkscape:vp_y="0 : 1000 : 0" inkscape:vp_z="744.09448 : 526.18109 : 1" inkscape:persp3d-origin="372.04724 : 350.78739 : 1" id="perspective10"/>
    <inkscape:perspective id="perspective2824" inkscape:persp3d-origin="0.5 : 0.33333333 : 1" inkscape:vp_z="1 : 0.5 : 1" inkscape:vp_y="0 : 1000 : 0" inkscape:vp_x="0 : 0.5 : 1" sodipodi:type="inkscape:persp3d"/>
  </defs>
  <sodipodi:namedview id="base" pagecolor="#ffffff" bordercolor="#666666" borderopacity="1.0" inkscape:pageopacity="0.0" inkscape:pageshadow="2" inkscape:zoom="0.49497475" inkscape:cx="527.43951" inkscape:cy="485.05611" inkscape:document-units="px" inkscape:current-layer="layer1" showgrid="false" inkscape:window-width="1600" inkscape:window-height="838" inkscape:window-x="-8" inkscape:window-y="-8" inkscape:window-maximized="1"/>
  <metadata id="metadata7">
    <rdf:RDF>
      <cc:Work rdf:about="">
        <dc:format>image/svg+xml</dc:format>
        <dc:type rdf:resource="http://purl.org/dc/dcmitype/StillImage"/>
        <dc:title/>
      </cc:Work>
    </rdf:RDF>
  </metadata>
  <g inkscape:label="Camada 1" inkscape:groupmode="layer" id="layer1" transform="translate(-187.09341,-425.5209)">
    <g id="g3613">
      <path sodipodi:nodetypes="czsssssscsssssssss" id="path2830" d="m 203.125,831.6479 c -4.1603,-1.0564 -8.27221,-4.89056 -10.71429,-7.14286 -2.44208,-2.2523 -6.08769,-3.92378 -4.375,-5.53572 0,0 1.11753,-0.8607 1.51786,-1.42857 0.29948,-0.42482 0.95204,-1.02458 0.625,-1.42857 0,0 -1.29346,-1.10282 -1.51786,-1.875 -0.21738,-0.748 -0.37671,-1.89816 0.26786,-2.32143 1.39332,-0.91494 2.46673,-0.0415 3.75,0.80357 l 3.66072,2.41072 c 0,0 2.06847,1.45068 3.21428,1.96428 0.93647,0.41977 3.4866,0.0203 2.94643,0.89286 0,0 -0.64206,1.35412 -1.16071,1.875 -0.59433,0.59689 -2.13577,0.497 -2.14286,1.33929 -0.011,1.31252 2.19947,1.43307 3.30357,2.14285 0,0 2.91287,1.18294 3.75,2.41072 0.51295,0.75231 0.67727,1.7791 0.53571,2.67857 -0.18021,1.14509 -0.72423,2.4044 -1.69642,3.03571 -0.5514,0.35807 -1.32705,0.34039 -1.96429,0.17858 z" style="fill:#000000;fill-opacity:1;stroke:#000000;stroke-width:1px;stroke-linecap:butt;stroke-linejoin:miter;stroke-opacity:1"/>
      <path sodipodi:nodetypes="ccccc" id="path2832" d="M 640.89285,457.8979 365.17857,723.61219 697.85714,638.79075 198.57143,823.07647 657.14286,474.50504" style="fill:none;stroke:#000000;stroke-width:1px;stroke-linecap:butt;stroke-linejoin:miter;stroke-opacity:1"/>
      <path id="path2834" d="m 200,823.79075 577.85714,-350" style="fill:none;stroke:#000000;stroke-width:1px;stroke-linecap:butt;stroke-linejoin:miter;stroke-opacity:1"/>
      <path sodipodi:nodetypes="csssscsscsssass" id="path2836" d="m 640,459.1479 c 0.6144,-5.73642 13.46863,-12.37035 21.14405,-16.78628 16.0843,-9.25385 33.65611,-15.08924 52.06824,-16.18965 24.09093,-1.43981 47.16269,7.46239 63.91277,24.55254 11.71146,11.94924 21.71754,25.91159 30.5964,40.00288 8.34151,13.23848 6.72029,29.24054 4.87327,44.06753 -7.3198,48.4359 -49.12114,78.96505 -90.43594,99.33439 -6.03983,2.97781 -12.90115,4.63116 -19.53578,5.73287 -3.38764,0.56254 -8.72521,-0.72038 -4.52129,-3.77042 33.45522,-18.49537 56.44104,-47.97476 71.0855,-82.84964 6.91364,-16.46441 8.49544,-34.66094 6.62232,-52.3941 -3.11828,-29.52124 -11.55438,-46.24114 -43.3037,-43.5492 -22.2188,1.88387 -43.95959,7.64163 -65.23627,14.15553 -3.23113,0.98922 -6.71502,4.98228 -9.41243,3.76497 C 651.46469,472.33448 639.45252,464.25958 640,459.1479 z" style="fill:#000000;fill-opacity:1;stroke:#000000;stroke-width:1px;stroke-linecap:butt;stroke-linejoin:miter;stroke-opacity:1"/>
      <path sodipodi:nodetypes="csssss" id="path2838" d="m 219.95536,817.98718 c 1.823,-1.14957 3.43685,-0.64763 4.82143,0.75893 0.5455,0.55416 0.34611,1.6817 -0.0447,2.36607 -4.64674,8.13712 -15.82202,16.87014 -24.86607,18.61607 -2.24756,0.43389 -3.07102,-2.21706 -1.83036,-3.75 5.8723,-7.25571 13.86474,-12.91166 21.9197,-17.99107 z" style="fill:#000000;fill-opacity:1;stroke:#000000;stroke-width:1px;stroke-linecap:butt;stroke-linejoin:miter;stroke-opacity:1"/>
    </g>
  </g>
</svg>