<?xml version="1.0" encoding="UTF-8" standalone="no"?>
<!DOCTYPE svg PUBLIC "-//W3C//DTD SVG 20010904//EN" "http://www.w3.org/TR/2001/REC-SVG-20010904/DTD/svg10.dtd">
<svg version="1.0" xmlns="http://www.w3.org/2000/svg" width="1700.000000pt" height="1700.000000pt" viewBox="0 0 1700.000000 1700.000000" preserveAspectRatio="xMidYMid meet">
<metadata>
Created by potrace 1.11, written by Peter Selinger 2001-2013
</metadata>
<g transform="translate(0.000000,1700.000000) scale(0.100000,-0.100000)" fill="#000000" stroke="none">
<path d="M7865 15689 c-755 -34 -1805 -247 -2592 -525 -695 -246 -1059 -467 -1509 -918 -195 -195 -316 -338 -409 -481 -60 -93 -230 -414 -222 -421 3 -3 173 -9 378 -15 206 -5 546 -13 757 -19 951 -25 2361 -32 4922 -27 1449 3 2887 11 3195 17 562 11 1754 46 1761 52 8 9 -313 535 -391 641 -101 135 -305 347 -441 459 -576 473 -1405 820 -2524 1058 -497 105 -934 151 -1725 180 -298 11 -949 11 -1200 -1z"/>
<path d="M13974 12964 c-87 -67 -330 -272 -416 -352 -750 -697 -2657 -2530 -3248 -3121 -463 -464 -549 -572 -482 -606 80 -42 238 84 922 734 107 102 258 247 335 321 77 75 338 327 580 561 1374 1325 1987 1940 2204 2209 58 72 171 274 159 285 -3 3 -27 -11 -54 -31z"/>
<path d="M3190 12922 c0 -27 84 -165 178 -292 580 -783 2844 -3546 3010 -3674 21 -16 25 -16 47 -2 35 23 42 62 20 103 -23 42 -395 538 -615 818 -775 989 -1673 2098 -2059 2540 -195 223 -444 455 -542 506 -37 18 -39 18 -39 1z"/>
<path d="M8040 11054 c-106 -21 -299 -106 -427 -189 -362 -236 -584 -573 -600 -910 -26 -570 407 -1057 1052 -1181 123 -24 377 -24 497 -1 98 20 265 75 342 114 156 78 333 225 437 363 69 90 144 246 176 365 24 90 27 117 27 270 0 152 -3 180 -26 267 -90 332 -309 597 -613 739 -114 54 -297 113 -431 139 -105 21 -372 36 -434 24z"/>
<path d="M4420 8700 c-135 -4 -281 -10 -325 -14 -44 -4 -199 -16 -344 -27 -167 -12 -276 -25 -299 -35 -72 -30 -227 -177 -294 -279 -34 -51 -39 -66 -35 -99 8 -57 85 -163 188 -257 l89 -81 1442 5 c1395 5 1607 10 1763 38 121 22 219 88 270 180 97 180 -46 408 -306 487 -130 40 -516 67 -1179 82 -450 10 -596 10 -970 0z"/>
<path d="M11035 8503 c-897 -27 -1176 -119 -1236 -408 -18 -89 -7 -125 56 -194 121 -130 300 -182 730 -212 321 -22 1486 -10 2130 22 717 35 872 100 837 350 -52 368 -416 453 -1911 447 -284 -1 -556 -3 -606 -5z"/>
<path d="M7666 4829 c-36 -28 -149 -201 -190 -290 -64 -139 -95 -279 -120 -534 -33 -331 -41 -510 -41 -910 1 -512 23 -886 76 -1300 21 -160 93 -565 107 -597 6 -15 24 -10 148 41 199 82 263 129 300 216 29 69 35 259 41 1280 7 1299 -4 1602 -66 1765 -23 62 -115 222 -164 287 -46 60 -60 66 -91 42z"/>
<path d="M8917 4756 c-34 -31 -104 -140 -151 -234 -95 -188 -141 -401 -178 -822 -20 -222 -16 -1037 5 -1310 59 -737 154 -1207 247 -1218 14 -1 62 15 108 38 93 45 269 148 278 162 3 5 15 188 26 406 33 660 27 1712 -13 2272 -21 302 -55 446 -138 588 -83 142 -128 170 -184 118z"/>
</g>
</svg>