<?xml version="1.0" encoding="UTF-8"?>

<svg version="1.2" baseProfile="tiny" width="240mm" height="240mm" viewBox="0 0 24000 24000" preserveAspectRatio="xMidYMid" fill-rule="evenodd" clip-path="url(#presentation_clip_path)" stroke-width="28.222" stroke-linejoin="round" xmlns="http://www.w3.org/2000/svg" xmlns:ooo="http://xml.openoffice.org/svg/export" xmlns:xlink="http://www.w3.org/1999/xlink" xml:space="preserve">
 <defs class="ClipPathGroup">
  <clipPath id="presentation_clip_path" clipPathUnits="userSpaceOnUse">
   <rect x="0" y="0" width="24000" height="24000"/>
  </clipPath>
 </defs>
 <defs class="TextShapeIndex">
  <g ooo:slide="id1" ooo:id-list="id3 id4 id5 id6 id7 id8"/>
 </defs>
 <defs class="EmbeddedBulletChars">
  <g id="bullet-char-template(57356)" transform="scale(0.00048828125,-0.00048828125)">
   <path d="M 580,1141 L 1163,571 580,0 -4,571 580,1141 Z"/>
  </g>
  <g id="bullet-char-template(57354)" transform="scale(0.00048828125,-0.00048828125)">
   <path d="M 8,1128 L 1137,1128 1137,0 8,0 8,1128 Z"/>
  </g>
  <g id="bullet-char-template(10146)" transform="scale(0.00048828125,-0.00048828125)">
   <path d="M 174,0 L 602,739 174,1481 1456,739 174,0 Z M 1358,739 L 309,1346 659,739 1358,739 Z"/>
  </g>
  <g id="bullet-char-template(10132)" transform="scale(0.00048828125,-0.00048828125)">
   <path d="M 2015,739 L 1276,0 717,0 1260,543 174,543 174,936 1260,936 717,1481 1274,1481 2015,739 Z"/>
  </g>
  <g id="bullet-char-template(10007)" transform="scale(0.00048828125,-0.00048828125)">
   <path d="M 0,-2 C -7,14 -16,27 -25,37 L 356,567 C 262,823 215,952 215,954 215,979 228,992 255,992 264,992 276,990 289,987 310,991 331,999 354,1012 L 381,999 492,748 772,1049 836,1024 860,1049 C 881,1039 901,1025 922,1006 886,937 835,863 770,784 769,783 710,716 594,584 L 774,223 C 774,196 753,168 711,139 L 727,119 C 717,90 699,76 672,76 641,76 570,178 457,381 L 164,-76 C 142,-110 111,-127 72,-127 30,-127 9,-110 8,-76 1,-67 -2,-52 -2,-32 -2,-23 -1,-13 0,-2 Z"/>
  </g>
  <g id="bullet-char-template(10004)" transform="scale(0.00048828125,-0.00048828125)">
   <path d="M 285,-33 C 182,-33 111,30 74,156 52,228 41,333 41,471 41,549 55,616 82,672 116,743 169,778 240,778 293,778 328,747 346,684 L 369,508 C 377,444 397,411 428,410 L 1163,1116 C 1174,1127 1196,1133 1229,1133 1271,1133 1292,1118 1292,1087 L 1292,965 C 1292,929 1282,901 1262,881 L 442,47 C 390,-6 338,-33 285,-33 Z"/>
  </g>
  <g id="bullet-char-template(9679)" transform="scale(0.00048828125,-0.00048828125)">
   <path d="M 813,0 C 632,0 489,54 383,161 276,268 223,411 223,592 223,773 276,916 383,1023 489,1130 632,1184 813,1184 992,1184 1136,1130 1245,1023 1353,916 1407,772 1407,592 1407,412 1353,268 1245,161 1136,54 992,0 813,0 Z"/>
  </g>
  <g id="bullet-char-template(8226)" transform="scale(0.00048828125,-0.00048828125)">
   <path d="M 346,457 C 273,457 209,483 155,535 101,586 74,649 74,723 74,796 101,859 155,911 209,963 273,989 346,989 419,989 480,963 531,910 582,859 608,796 608,723 608,648 583,586 532,535 482,483 420,457 346,457 Z"/>
  </g>
  <g id="bullet-char-template(8211)" transform="scale(0.00048828125,-0.00048828125)">
   <path d="M -4,459 L 1135,459 1135,606 -4,606 -4,459 Z"/>
  </g>
 </defs>
 <defs class="TextEmbeddedBitmaps"/>
 <g>
  <g id="id2" class="Master_Slide">
   <g id="bg-id2" class="Background"/>
   <g id="bo-id2" class="BackgroundObjects"/>
  </g>
 </g>
 <g class="SlideGroup">
  <g>
   <g id="id1" class="Slide" clip-path="url(#presentation_clip_path)">
    <g class="Page">
     <g class="com.sun.star.drawing.ClosedBezierShape">
      <g id="id3">
       <path fill="rgb(35,31,32)" stroke="none" d="M 13614,21417 C 13992,21417 5656,22958 5282,22958 4908,22958 4543,23045 4224,23189 3905,23334 4056,22149 4379,22300 4692,22436 8763,21504 8960,21468 L 18673,19736 C 18987,19662 19414,19443 19565,19064 19593,18994 19697,18973 19784,18977 19941,18986 20058,19122 20058,19279 20058,19530 19867,20227 18804,20442 18804,20442 13488,21417 13614,21417 Z"/>
      </g>
     </g>
     <g class="com.sun.star.drawing.OpenBezierShape">
      <g id="id4"/>
     </g>
     <g class="com.sun.star.drawing.ClosedBezierShape">
      <g id="id5">
       <path fill="rgb(35,31,32)" stroke="none" d="M 8907,20596 C 8977,20906 9355,21206 9748,21206 L 9746,21210 C 10239,21210 10641,20813 10641,20314 L 10626,20169 9555,15575 C 9464,15280 9185,15002 8898,14885 L 7324,13939 6606,10843 11032,10835 C 11393,10835 11684,10546 11684,10185 11684,9823 11393,9528 11032,9528 L 4642,9528 C 4003,9528 3709,9985 3784,10382 L 4689,14487 C 4759,14874 5012,15197 5352,15367 L 5373,15376 8006,16922 8907,20596 Z"/>
      </g>
     </g>
     <g class="com.sun.star.drawing.CustomShape">
      <g id="id6">
       <path fill="rgb(0,0,0)" stroke="none" d="M 4329,6500 C 5038,6500 5579,7041 5579,7750 5579,8459 5038,9000 4329,9000 3620,9000 3079,8459 3079,7750 3079,7041 3620,6500 4329,6500 Z M 3079,6500 L 3079,6500 Z M 5580,9001 L 5580,9001 Z"/>
       <path fill="none" stroke="rgb(52,101,164)" d="M 4329,6500 C 5038,6500 5579,7041 5579,7750 5579,8459 5038,9000 4329,9000 3620,9000 3079,8459 3079,7750 3079,7041 3620,6500 4329,6500 Z"/>
       <path fill="none" stroke="rgb(52,101,164)" d="M 3079,6500 L 3079,6500 Z"/>
       <path fill="none" stroke="rgb(52,101,164)" d="M 5580,9001 L 5580,9001 Z"/>
      </g>
     </g>
     <g class="com.sun.star.drawing.ClosedBezierShape">
      <g id="id7">
       <path fill="rgb(0,0,0)" stroke="none" d="M 18733,11021 C 20681,8624 20480,5523 20275,4185 20218,3817 19944,3298 19683,3033 18347,1674 17302,1095 16678,850 16331,713 16272,857 16496,1155 16906,1700 17453,2762 17558,4619 17677,6716 16827,9276 16389,10438 16257,10786 16371,11266 16707,11427 17983,12039 18733,11021 18733,11021 Z"/>
      </g>
     </g>
     <g class="com.sun.star.drawing.ClosedBezierShape">
      <g id="id8">
       <path fill="rgb(0,0,0)" stroke="none" d="M 14047,762 C 12171,1147 11217,2522 11083,3521 11065,3659 11105,3879 11164,4005 11322,4337 11672,4918 12222,4989 12360,5007 12552,4906 12651,4809 13200,4280 14917,2714 16579,2189 16579,2189 16086,344 14047,762 Z"/>
      </g>
     </g>
    </g>
   </g>
  </g>
 </g>
</svg>