<?xml version="1.0" encoding="UTF-8"?>
<svg width="744.09448819" height="1052.3622047" xmlns="http://www.w3.org/2000/svg">
 <metadata id="metadata12390">image/svg+xmlOther map symbolsMohamed IbrahimPublic Domainclker.comother map symbols</metadata>
 <g>
  <title>Layer 1</title>
  <g externalResourcesRequired="false" id="layer1">
   <path d="m125.879608,117.853889c-34.377304,0 -62.3367,28.022896 -62.3367,62.400291l0,477.915009c0,34.377014 27.959396,62.399963 62.3367,62.399963l477.914276,0c34.377991,0 62.336975,-28.022949 62.336975,-62.399963l0,-477.915009c0,-34.377396 -27.958984,-62.400291 -62.336975,-62.400291l-477.914276,0z" id="path4794" fill-rule="nonzero" fill="#ffffff"/>
   <path d="m496.158569,283.627167c23.193481,0 41.939026,-18.872498 41.939026,-42.066101c0,-23.193542 -18.745544,-42.066162 -41.939026,-42.066162c-23.320679,0 -42.066162,18.87262 -42.066162,42.066162c0,23.193604 18.745483,42.066101 42.066162,42.066101" id="path4798" fill-rule="nonzero" fill="#231f20"/>
   <g externalResourcesRequired="false" id="svg_2">
    <path d="m194.731461,528.920044c147.23201,61.955933 259.069016,98.04895 416.595016,147.677002c3.177002,0.507935 6.164001,-1.716125 6.671997,-5.084106c0.507996,-3.17688 -1.716003,-6.290894 -4.955994,-6.925903c-248.076019,-78.096008 -442.902023,-164.57901 -487.32003,-184.659027c-4.575005,-1.906006 -9.912994,0.253967 -11.691994,4.701965c-1.843002,4.575012 0.126999,9.531982 4.639,11.311035c10.992989,4.955994 21.922997,9.786011 32.471001,14.360962l-34.948997,26.68808c-4.004005,5.846008 -2.288002,13.280945 3.557999,17.283997c4.384987,2.922974 10.548988,2.605957 14.805992,-0.127075l60.17601,-25.226929l0,0z" id="path4796" fill-rule="nonzero" fill="#231f20"/>
    <path d="m388.531311,384.342621l89.342926,-43.908936l82.924957,76.316406c3.685547,3.622009 8.769104,5.846069 14.233887,5.846069c11.183716,-0.127075 20.143433,-9.213928 20.016357,-20.207031c0,-5.973145 -2.732361,-11.310852 -6.862732,-15.059937l-118.509644,-108.850891c-3.939728,-3.812683 -8.578461,-6.926331 -13.661957,-9.150391l-92.202423,-32.915771l-41.939056,-60.68457c-3.240753,-4.44812 -8.197174,-7.434692 -14.043243,-8.197205c-10.929565,-1.207336 -20.969543,6.735718 -22.176849,17.792358c-0.508362,4.575134 0.571869,9.023254 2.859467,12.772339l42.765137,62.018982c2.033417,2.47821 4.511627,4.638733 7.498199,5.973145l49.627899,19.507996l-81.527008,41.684937c-11.437927,6.417908 -19.508026,17.855835 -21.732056,31.136536l0.381256,74.600708l-75.426804,33.996033c-8.451355,4.130371 -14.488037,12.518188 -14.869293,22.621704c-0.635452,14.360962 10.548309,26.434357 24.909256,27.006256c4.511627,0.254211 8.832611,-0.698975 12.581711,-2.605347l92.265976,-41.684906c6.545044,-3.494873 11.501495,-9.785767 13.153625,-17.474609l-0.127106,-46.450684l64.052399,57.38031l-11.819183,97.667145c0,0.57196 -0.127075,1.207336 -0.127075,1.842834c-0.635437,14.4245 10.548309,26.56134 24.972778,27.196777c13.534882,0.508423 25.036377,-9.340881 26.942688,-22.621643l13.725525,-111.456268c0,-0.444763 0.127075,-0.953125 0.127075,-1.461487c0.254181,-7.815918 -2.859467,-14.869324 -8.070099,-19.889282l-59.286591,-52.741577z" id="path4800" fill-rule="nonzero" fill="#231f20"/>
   </g>
  </g>
 </g>
</svg>